<!-- Generator: Adobe Illustrator 25.2.1, SVG Export Plug-In  -->
<svg version="1.1" xmlns="http://www.w3.org/2000/svg" xmlns:xlink="http://www.w3.org/1999/xlink" x="0px" y="0px"
     width="1809.8px" height="943.3px" viewBox="0 0 1809.8 943.3" style="overflow:visible;enable-background:new 0 0 1809.8 943.3;"
     xml:space="preserve">
<style type="text/css">
    .st0{fill:#FFFFFF;}
</style>
<defs>
</defs>
<path class="st0" d="M1673.5,447.1c-21,8.3-42.1,12.4-63.1,12.4c-25.5,0-47.9-5.1-67-15.2c-19.2-10.1-35.1-23.5-47.9-40
    c-12.8-16.5-22.4-35.1-28.7-55.7c-6.4-20.6-9.6-41.5-9.6-62.5c0-21,3-41.8,9-62.5c6-20.6,15.2-39.2,27.6-55.7
    c12.4-16.5,28-29.8,46.7-40c18.8-10.1,40.5-15.2,65.3-15.2c21.8,0,43.2,5.1,64.2,15.2c21,10.1,36.8,22.7,47.3,37.7l92.3-81.1
    c-21.8-26.3-51.2-46.9-88.4-61.9C1684.2,7.5,1645.7,0,1605.9,0c-39.8,0-77.1,6.8-112.1,20.3c-34.9,13.5-65.5,32.7-91.8,57.4
    c-26.3,24.8-47.1,54.8-62.5,90.1c-15.4,35.3-23.1,74.7-23.1,118.2c0,34,4.4,65.2,13.1,93.6c-24.3-5.7-49.6-8.5-75.9-8.5
    c-40.5,0-78.8,6.8-114.9,20.3c-4.7,1.8-9.3,3.6-13.8,5.5c0-1.7,0.1-3.4,0.1-5.1c0-26.3-5.3-48.6-15.8-67
    c-10.5-18.4-24.2-33.8-41.1-46.2c-16.9-12.4-35.7-22.3-56.3-29.8c-20.7-7.5-41.1-13.5-61.4-18c-38.3-9-67.4-17.8-87.3-26.5
    c-19.9-8.6-29.8-23.5-29.8-44.5c0-21,9-36,27-45c18-9,37.9-13.5,59.7-13.5c24.8,0,47.7,5.8,68.7,17.5c21,11.7,37.5,25.3,49.6,41.1
    l87.8-77.7c-21.8-27.8-51.2-48.4-88.4-61.9C1000.7,6.8,962.6,0,923.6,0c-27,0-53.3,3.4-78.8,10.1c-25.5,6.8-48.4,17.1-68.7,31
    c-20.3,13.9-36.6,31.7-49,53.5c-12.4,21.8-18.6,47.7-18.6,77.7c0,25.5,4.5,46.9,13.5,64.2c9,17.3,21,31.7,36,43.4
    c15,11.7,32.1,21,51.2,28.2c19.1,7.1,38.9,13,59.1,17.5c41.3,9.8,72.3,19.5,92.9,29.3c20.6,9.8,31,25.9,31,48.4
    c0,12-2.6,22.2-7.9,30.4c-5.3,8.3-12.2,14.8-20.8,19.7c-8.6,4.9-18,8.4-28.2,10.7s-20.1,3.4-29.8,3.4c-29.3,0-55.1-8.1-80-19.2
    c-30.3-13.4-71.9-50.3-120.2-73.6c-39.8-19.2-78.8-27-117.8-27c-27,0-53.3,3.4-78.8,10.1c-3,0.8-5.9,1.6-8.8,2.5V227.5
    c0-27-3.6-54.1-10.7-81.1c-7.1-27-19.7-51.4-37.7-73.2c-18-21.8-42.6-39.4-73.8-52.9C346.7,6.8,307.1,0,259,0
    c-41.3,0-82,7.1-122.2,21.4C96.7,35.7,61.2,57.1,30.4,85.6l69.8,82.2c17.3-17.3,39-31.9,65.3-43.9c26.3-12,53.7-18,82.2-18
    c33.8,0,62.9,8.1,87.3,24.2c24.4,16.2,36.6,41.1,36.6,74.9v13.5c-42.1,0-85,2.1-129,6.2c-43.9,4.1-83.9,12.6-119.9,25.3
    c-36,12.8-65.5,31.2-88.4,55.2C11.4,329.2,0,361.5,0,402.1c0,31.5,6.6,58,19.7,79.4c13.1,21.4,29.7,38.7,49.6,51.8
    c19.9,13.1,41.7,22.5,65.3,28.2c23.6,5.6,46.3,8.4,68.1,8.4c38.3,0,72.4-7.7,102.5-23.1c30-15.4,51.8-35.1,65.3-59.1h4.7l0,0
    c-1.8,10.2-2.7,20.9-2.7,32.3c0,25.5,4.5,46.9,13.5,64.2c9,17.3,21,31.7,36,43.4c15,11.7,32.1,21,51.2,28.2
    c19.1,7.1,38.9,13,59.1,17.5c41.3,9.8,72.3,19.5,92.9,29.3c20.6,9.8,31,25.9,31,48.4c0,12-2.6,22.2-7.9,30.4
    c-5.3,8.3-12.2,14.8-20.8,19.7c-8.6,4.9-18,8.4-28.2,10.7c-10.1,2.3-20.1,3.4-29.8,3.4c-29.3,0-55.9-6.4-80-19.2
    c-24-12.8-43.6-28.9-58.6-48.4l-89,83.3c26.3,28.5,59.3,50.5,99.1,65.9C481,912,521.9,919.7,564,919.7c29.3,0,57.6-3.2,85-9.6
    c27.4-6.4,51.4-16.7,72.1-31c20.6-14.3,37.2-32.8,49.6-55.8c12.4-22.9,18.6-50.9,18.6-83.9c0-26.3-5.3-48.6-15.8-67
    c-10.5-18.4-24.2-33.8-41.1-46.2C715.4,614,696.7,604,676,596.5c-20.7-7.5-41.1-13.5-61.4-18c-38.3-9-67.4-17.8-87.3-26.5
    c-19.9-8.6-29.8-23.5-29.8-44.5c0-21,9-36,27-45c18-9,37.9-13.5,59.7-13.5c24.8,0,58.4,2.1,84.3,19.6
    c36.6,24.7,63.6,45.9,101.1,66.4c37.5,20.6,88.3,37.1,130.3,37.1c25,0,49.3-2.3,72.9-7c-8.7,27.7-13.1,57.7-13.1,89.8
    c0,42.8,7.7,81.8,23.1,117.1c15.4,35.3,36.2,65.5,62.5,90.7c26.3,25.2,57.4,44.9,93.5,59.1c36,14.2,74.3,21.4,114.9,21.4
    s78.8-7.1,114.9-21.4c36-14.3,67.2-34,93.5-59.1c26.3-25.1,47.1-55.4,62.5-90.7c15.4-35.3,23.1-74.3,23.1-117.1
    c0-32.6-4.5-62.9-13.4-91c24.1,5.4,49.1,8.1,75,8.1c40.5,0,78.3-6.6,113.2-19.7c34.9-13.1,63.6-31.7,86.2-55.8l-84.5-85.6
    C1711.4,426.8,1694.5,438.8,1673.5,447.1z M371.6,328.8c0,42.8-12,76.6-36,101.4c-24,24.8-59.3,37.2-105.9,37.2
    c-11.3,0-22.5-1.1-33.8-3.4s-21.4-6-30.4-11.3c-9-5.2-16.3-12.2-22-20.8c-5.6-8.6-8.4-19.3-8.4-32.1c0-20.3,6.8-36.2,20.3-47.9
    c13.5-11.6,30.4-20.6,50.7-27c20.3-6.4,42.4-10.5,66.4-12.4c24-1.9,46.9-2.8,68.7-2.8h30.4V328.8z M1400.7,718
    c-6.4,21-16,39.8-28.7,56.3c-12.8,16.5-28.9,30-48.4,40.5c-19.5,10.5-42.8,15.8-69.8,15.8s-50.3-5.2-69.8-15.8
    c-19.5-10.5-35.7-24-48.4-40.5c-12.8-16.5-22.3-35.3-28.7-56.3c-6.4-21-9.6-42-9.6-63.1c0-21,3.2-41.8,9.6-62.5
    c6.4-20.6,15.9-39.2,28.7-55.7c12.8-16.5,28.9-29.8,48.4-40c19.5-10.1,42.8-15.2,69.8-15.2s50.3,5.1,69.8,15.2
    c19.5,10.1,35.7,23.5,48.4,40c12.8,16.5,22.3,35.1,28.7,55.7c6.4,20.7,9.6,41.5,9.6,62.5C1410.3,676,1407.1,697,1400.7,718z"/>
</svg>
